<svg width="173" height="50" viewBox="0 0 173 50" fill="none" xmlns="http://www.w3.org/2000/svg">
<path d="M9.76229 19.8353V16.8572H13.4849V19.8353V20.0214V20.3937C13.4849 25.4193 11.2513 30.0726 7.52871 33.4229C5.48125 35.2843 3.06154 36.7733 0.455688 37.704V33.9813C2.13088 33.2368 3.61993 32.3061 4.92286 31.0032C7.90097 28.3974 9.76229 24.4886 9.76229 20.3937V20.0214V19.8353ZM28.3755 19.8353V16.8572H32.0981V19.8353V20.0214V20.3937C32.0981 24.4886 33.9595 28.2112 36.9376 31.0032C38.2405 32.12 39.7295 33.2368 41.4047 33.9813V37.704C38.6128 36.7733 36.193 35.2843 34.3317 33.4229C30.6091 30.0726 28.3755 25.4193 28.3755 20.3937V20.0214V19.8353ZM0.455688 44.0325C4.73673 42.9157 8.6455 40.6821 11.8097 37.8901C14.2295 35.6565 16.0908 33.2368 17.3937 30.2587C18.3244 32.6784 19.4412 34.7259 20.9302 36.7733C22.2331 34.912 23.3499 32.6784 24.4667 30.2587C25.7696 33.0507 27.631 35.6565 30.0507 37.8901C33.2149 40.6821 37.1237 42.9157 41.4047 44.0325V40.3098C38.0544 39.193 35.0762 37.5178 32.6565 35.2843C28.5616 31.5616 26.1419 26.3499 26.1419 20.766V5.13086H22.4193V20.766C22.4193 23.5579 21.8609 26.7222 21.1163 29.328C20.1857 26.9083 19.8134 23.5579 19.8134 20.766V5.13086H16.0908V20.766C16.0908 26.3499 13.4849 31.5616 9.57616 35.2843C7.15644 37.5178 4.17833 39.193 0.827953 40.3098V44.0325H0.455688ZM17.2076 35.6565C16.2769 36.9594 15.1601 38.0762 13.8572 39.193C10.1346 42.5434 5.66739 44.9631 0.455688 46.0799V49.6164C6.59805 48.3135 12.182 45.5215 16.6492 41.6127C17.5798 40.6821 18.5105 39.9376 19.255 38.8208H19.0689C18.3244 37.8901 17.766 36.7733 17.2076 35.6565ZM22.7915 39.193C23.5361 40.1237 24.4667 40.8682 25.2113 41.7989C29.4923 45.7076 35.0762 48.6858 41.4047 49.8026V46.266C36.193 45.1493 31.5397 42.7295 28.0032 39.3792C26.8864 38.2624 25.7696 37.1456 24.839 36.0288C24.2806 37.1456 23.7222 38.0762 22.9777 39.0069C22.9777 39.0069 22.7915 39.0069 22.7915 39.193Z" fill="#FB0C34"/>
<path d="M58.1565 18.9045C59.0872 14.4374 60.204 9.59793 60.5762 5.13076H65.0434V25.7914H62.2514V17.6016L62.6237 10.1563C62.2514 12.576 60.5762 21.3242 58.5288 25.6053H58.1565H57.7842C55.7368 21.3242 54.0616 12.576 53.6893 10.1563L54.0616 17.6016V25.7914H51.2696V5.13076H55.7368C56.2952 9.59793 57.412 14.4374 58.1565 18.9045ZM124.792 8.66727V9.59793V11.2731C124.792 12.9483 124.047 14.0651 122.93 14.8096C124.047 15.7403 124.792 17.2293 124.792 18.9045V25.6053C122.744 25.6053 120.883 25.6053 118.836 25.6053H115.485V4.94463H118.836C120.883 4.94463 122.744 4.94463 124.792 4.94463V8.66727ZM118.649 16.4848V22.8133H121.441C121.441 21.5104 121.441 20.2075 121.441 18.7184C121.441 16.6709 119.952 16.4848 118.649 16.4848ZM118.649 7.92274V13.5067C119.952 13.5067 121.441 13.5067 121.441 11.4593V9.59793V8.10887H118.649V7.92274ZM106.737 25.7914H103.387V4.94463H106.737H109.901H113.252V25.6053H109.901H106.737V25.7914ZM109.715 7.92274H106.737V22.8133H109.715V7.92274ZM70.8135 25.7914H67.4631V4.94463H70.8135H73.9777H77.3281V25.6053H73.9777H70.8135V25.7914ZM73.7916 7.92274H70.8135V22.8133H73.7916V7.92274ZM130.19 25.7914H126.839V4.94463H130.19H133.354H136.704V13.3206H133.354V7.92274H130.19V22.8133H133.354V17.4155H136.704V25.7914H133.354H130.19ZM82.7259 25.7914H79.3756V4.94463H82.7259H85.8902H89.2406V13.3206H85.8902V7.92274H82.7259V22.8133H85.8902V17.4155H89.2406V25.7914H85.8902H82.7259ZM142.288 25.7914H138.938V5.13076H142.288V13.3206H142.847C144.708 13.3206 145.266 11.4593 145.266 10.1563V5.31689H148.617V9.97019C148.617 12.2038 147.872 13.6928 146.197 14.8096C147.872 15.9264 148.617 17.6016 148.617 19.6491V25.7914H145.266V19.4629C145.266 18.16 144.522 16.4848 142.847 16.4848H142.288V25.7914ZM171.511 2.52491H164.252V0.105194H171.511V2.52491ZM162.949 25.7914V5.13076H165.927V17.2293L169.277 5.13076H173V25.7914H169.836V11.4593L165.741 25.9776L162.949 25.7914ZM150.664 25.7914V5.13076H153.642V17.2293L156.993 5.13076H160.715V25.7914H157.737V11.4593L153.642 25.9776L150.664 25.7914ZM94.8245 25.7914H91.6603V5.13076H95.0107V13.3206H95.5691C97.4304 13.3206 97.9888 11.4593 97.9888 10.1563V5.31689H101.339V9.97019C101.339 12.2038 100.595 13.6928 98.9194 14.8096C100.595 15.9264 101.339 17.6016 101.339 19.6491V25.7914H97.9888V19.4629C97.9888 18.16 97.2442 16.4848 95.5691 16.4848H95.0107V25.7914H94.8245Z" fill="#FB0C34"/>
<path d="M66.7186 49.8022H63.3682V29.1415H73.0471V49.8022H69.6967V32.1196H66.5325V49.8022H66.7186ZM54.62 49.8022H51.2696V29.1415H54.62H57.7842H61.1346V37.5175H57.7842V32.1196H54.62V47.0102H57.7842V41.6124H61.1346V49.9883H57.7842H54.62V49.8022ZM78.631 49.8022H75.2807V29.1415H78.631H81.7953H85.1457V49.8022H81.7953H78.631ZM81.7953 31.9335H78.8172V46.8241H81.7953V31.9335ZM97.6165 29.1415H107.854V32.1196H104.503V49.8022H100.967V32.1196H97.6165V29.1415ZM96.6859 36.2145V37.1452V38.8204C96.6859 41.9846 95.0107 44.2182 91.8464 44.2182H90.7296V49.8022H87.3792V29.1415C90.5435 29.1415 93.5216 29.1415 96.6859 29.1415V36.2145ZM90.7296 31.9335V41.2401C92.0326 41.2401 93.5216 41.054 93.5216 39.0065V37.1452V32.1196H90.7296V31.9335Z" fill="#FB0C34"/>
</svg>
