<svg width="568" height="346" viewBox="0 0 568 346" fill="none" xmlns="http://www.w3.org/2000/svg">
<path d="M20.4304 84.184H31.4503V14.4378H25.1731L20.4304 84.184ZM11.3634 0.488525H46.097V84.184H50.9792V110.966H36.3325V98.1332H14.7112V110.966H0.0645142V84.184H5.64421L11.3634 0.488525Z" fill="#E6313F"/>
<path d="M56.5426 98.1332V0.488525H92.8106V14.4378H71.1893V38.1515H92.1131V52.1007H71.1893V84.184H92.8106V98.1332H56.5426Z" fill="#E6313F"/>
<path d="M131.231 0.488525H145.878V98.1332H131.231V52.1007H115.189V98.1332H100.543V0.488525H115.189V38.1515H131.231V0.488525Z" fill="#E6313F"/>
<path d="M168.861 50.7058V84.184H182.113V50.7058H168.861ZM190.343 98.1332H154.214V0.488525H168.861V36.7565H190.343C194.249 36.7565 196.76 39.4069 196.76 43.1732V91.7165C196.76 95.4828 194.249 98.1332 190.343 98.1332Z" fill="#E6313F"/>
<path d="M33.6822 179.969L45.6785 124.172H63.5335V221.816H48.8868V179.969L51.2582 152.07H50.5607L40.3778 202.287H26.7076L16.2456 152.07H15.5482L18.1985 179.969V221.816H3.55182V124.172H21.4068L33.2637 179.969H33.6822Z" fill="#3B3393"/>
<path d="M86.5825 207.867H101.229V138.121H86.5825V207.867ZM109.459 221.816H78.3524C74.4466 221.816 71.9358 219.166 71.9358 215.4V130.588C71.9358 126.822 74.4466 124.172 78.3524 124.172H109.459C113.365 124.172 115.876 126.822 115.876 130.588V215.4C115.876 219.166 113.365 221.816 109.459 221.816Z" fill="#3B3393"/>
<path d="M166.791 221.816H130.662C126.756 221.816 124.245 219.166 124.245 215.4V130.588C124.245 126.822 126.756 124.172 130.662 124.172H166.791V152.07H152.144V138.121H138.892V207.867H152.144V189.733H166.791V221.816Z" fill="#3B3393"/>
<path d="M206.176 168.809L221.242 221.816H205.758L192.925 175.784H189.158V221.816H174.512V124.172H189.158V161.835H193.343L205.758 124.172H221.242L206.176 168.809Z" fill="#3B3393"/>
<path d="M240.787 207.867H255.434V138.121H240.787V207.867ZM263.664 221.816H232.557C228.651 221.816 226.14 219.166 226.14 215.4V130.588C226.14 126.822 228.651 124.172 232.557 124.172H263.664C267.569 124.172 270.08 126.822 270.08 130.588V215.4C270.08 219.166 267.569 221.816 263.664 221.816Z" fill="#3B3393"/>
<path d="M306.348 161.835V138.121H293.097V161.835H306.348ZM306.348 175.784H293.097V207.867H306.348V175.784ZM320.995 130.588V157.929C320.995 163.509 318.066 167.275 313.741 168.809C318.066 170.344 320.995 173.971 320.995 179.69V215.4C320.995 219.166 318.484 221.816 314.578 221.816H278.45V124.172H314.578C318.484 124.172 320.995 126.822 320.995 130.588Z" fill="#3B3393"/>
<path d="M371.942 221.816H335.814C331.908 221.816 329.397 219.166 329.397 215.4V130.588C329.397 126.822 331.908 124.172 335.814 124.172H371.942V152.07H357.296V138.121H344.044V207.867H357.296V189.733H371.942V221.816Z" fill="#3B3393"/>
<path d="M411.328 168.809L426.393 221.816H410.91L398.077 175.784H394.31V221.816H379.664V124.172H394.31V161.835H398.495L410.91 124.172H426.393L411.328 168.809Z" fill="#3B3393"/>
<path d="M445.939 207.867H460.585V138.121H445.939V207.867ZM468.816 221.816H437.709C433.803 221.816 431.292 219.166 431.292 215.4V130.588C431.292 126.822 433.803 124.172 437.709 124.172H468.816C472.721 124.172 475.232 126.822 475.232 130.588V215.4C475.232 219.166 472.721 221.816 468.816 221.816Z" fill="#3B3393"/>
<path d="M483.602 124.172H518.475V138.121H498.248V221.816H483.602V124.172Z" fill="#3B3393"/>
<path d="M538.707 207.867H553.353V138.121H538.707V207.867ZM561.583 221.816H530.477C526.571 221.816 524.06 219.166 524.06 215.4V130.588C524.06 126.822 526.571 124.172 530.477 124.172H561.583C565.489 124.172 568 126.822 568 130.588V215.4C568 219.166 565.489 221.816 561.583 221.816Z" fill="#3B3393"/>
<path d="M46.097 345.5H9.96847C6.06269 345.5 3.55182 342.849 3.55182 339.083V254.272C3.55182 250.505 6.06269 247.855 9.96847 247.855H46.097V275.753H31.4503V261.804H18.1985V331.55H31.4503V313.416H46.097V345.5Z" fill="#E6313F"/>
<path d="M53.8181 247.855H98.4557V345.5H83.809V261.804H68.4648V345.5H53.8181V247.855Z" fill="#E6313F"/>
<path d="M121.456 331.55H136.102V261.804H121.456V331.55ZM144.332 345.5H113.226C109.32 345.5 106.809 342.849 106.809 339.083V254.272C106.809 250.505 109.32 247.855 113.226 247.855H144.332C148.238 247.855 150.749 250.505 150.749 254.272V339.083C150.749 342.849 148.238 345.5 144.332 345.5Z" fill="#E6313F"/>
<path d="M173.765 261.804V299.467H187.714V261.804H173.765ZM195.944 313.416H173.765V345.5H159.118V247.855H195.944C199.85 247.855 202.361 250.505 202.361 254.272V307C202.361 310.766 199.85 313.416 195.944 313.416Z" fill="#E6313F"/>
<path d="M207.276 261.804V247.855H249.821V261.804H235.872V345.5H221.225V261.804H207.276Z" fill="#E6313F"/>
<path d="M255.428 247.855H298.671V345.5H284.024V313.416H270.075V345.5H255.428V247.855ZM284.024 299.467V261.804H270.075V299.467H284.024Z" fill="#E6313F"/>
</svg>
